# xmcd
#
# Track frame offsets: 
#        150
#        12408
#        29978
#        44575
#        57347
#        72684
#        87967
#        103327
#        121443
#        140501
#        157312
#        175465
#        193059
#        218223
#        233684
#        247723
#        263618
#        279247
#        296909
#        311913
#
# Disc length: 4409 seconds
#
# Revision: 0
# Processed by: cddbd v1.5.2PL0 Copyright (c) Steve Scherf et al.
# Submitted via: ExactAudioCopy v0.99pb5
#
DISCID=42113714
DTITLE=Status Quo  - Pictures 40 Years Of Hits - Disc 2
DYEAR=1900
DGENRE=
TTITLE0=Something 'Bout You Baby I Like
TTITLE1=Rock 'N' Roll
TTITLE2=Dear John
TTITLE3=Ol' Rag Blues
TTITLE4=A Mess Of The Blues
TTITLE5=Marguerita Time
TTITLE6=The Wanderer
TTITLE7=Rollin' Home
TTITLE8=Red Sky
TTITLE9=In The Army Now
TTITLE10=Ain't Complaining
TTITLE11=Burning Bridges
TTITLE12=The Anniversary Waltz (Part 1)
TTITLE13=I Didn't Mean It
TTITLE14=Fun Fun Fun (Feat. The Beach Boys)
TTITLE15=Jam Side Down
TTITLE16=You'll Come 'Round
TTITLE17=The Party Ain't Over Yet
TTITLE18=Beginning Of The End
TTITLE19=It's Christmas Time
EXTD=
EXTT0=
EXTT1=
EXTT2=
EXTT3=
EXTT4=
EXTT5=
EXTT6=
EXTT7=
EXTT8=
EXTT9=
EXTT10=
EXTT11=
EXTT12=
EXTT13=
EXTT14=
EXTT15=
EXTT16=
EXTT17=
EXTT18=
EXTT19=
PLAYORDER=
